<?xml version="1.0" encoding="UTF-8"?>
<svg xmlns="http://www.w3.org/2000/svg" xmlns:xlink="http://www.w3.org/1999/xlink" width="1024px" height="1024px"
    viewBox="0 0 1024 1024" version="1.1">
    <g id="surface1">
        <path style="stroke:none;fill-rule:nonzero;fill:#5200FF;fill-opacity:1;"
            d="M 161.582031 419.722656 L 255.96875 514.105469 L 161.582031 608.492188 L 321.964844 768.875 L 416.351562 674.488281 L 444.738281 702.878906 L 350.351562 797.261719 L 510.734375 957.644531 L 671.117188 797.261719 L 576.734375 702.878906 L 605.121094 674.488281 L 699.507812 768.875 L 859.890625 608.492188 L 765.503906 514.105469 L 859.890625 419.722656 L 699.507812 259.335938 L 605.121094 353.722656 L 576.734375 325.335938 L 671.117188 230.949219 L 510.734375 70.566406 L 350.351562 230.949219 L 444.738281 325.335938 L 416.351562 353.722656 L 321.964844 259.335938 Z M 205.582031 419.722656 L 321.964844 303.335938 L 394.351562 375.722656 L 372.351562 397.722656 L 321.964844 347.335938 L 249.578125 419.722656 L 394.351562 564.492188 L 372.351562 586.492188 Z M 394.351562 230.949219 L 510.734375 114.566406 L 627.121094 230.949219 L 554.734375 303.335938 L 532.734375 281.335938 L 583.121094 230.949219 L 510.734375 158.566406 L 438.351562 230.949219 L 583.121094 375.722656 L 561.121094 397.722656 Z M 293.578125 419.722656 L 321.964844 391.332031 L 350.351562 419.722656 L 321.964844 448.109375 Z M 482.347656 230.949219 L 510.734375 202.5625 L 539.121094 230.949219 L 510.734375 259.335938 Z M 205.582031 608.492188 L 277.96875 536.105469 L 299.964844 558.105469 L 249.578125 608.492188 L 321.964844 680.878906 L 466.738281 536.105469 L 488.738281 558.105469 L 321.964844 724.875 Z M 343.964844 470.105469 L 466.738281 347.335938 L 488.738281 369.335938 L 365.964844 492.105469 Z M 293.578125 608.492188 L 321.964844 580.105469 L 350.351562 608.492188 L 321.964844 636.878906 Z M 387.964844 514.105469 L 416.351562 485.71875 L 444.738281 514.105469 L 416.351562 542.492188 Z M 438.351562 463.71875 L 460.347656 441.71875 L 583.121094 564.492188 L 561.125 586.492188 Z M 482.347656 419.722656 L 510.734375 391.332031 L 539.121094 419.722656 L 510.734375 448.109375 Z M 532.734375 470.105469 L 699.507812 303.335938 L 815.890625 419.722656 L 743.503906 492.109375 L 721.507812 470.109375 L 771.894531 419.722656 L 699.507812 347.335938 L 554.734375 492.105469 Z M 438.351562 652.488281 L 460.347656 630.492188 L 627.121094 797.261719 L 510.734375 913.648438 L 394.351562 797.261719 L 466.738281 724.875 L 488.738281 746.875 L 438.351562 797.261719 L 510.734375 869.648438 L 583.121094 797.261719 Z M 482.347656 608.492188 L 510.734375 580.105469 L 539.125 608.492188 L 510.738281 636.878906 Z M 576.734375 514.105469 L 605.121094 485.71875 L 633.507812 514.105469 L 605.121094 542.492188 Z M 627.121094 463.71875 L 649.121094 441.71875 L 815.890625 608.492188 L 699.507812 724.875 L 627.121094 652.492188 L 649.121094 630.492188 L 699.507812 680.875 L 771.890625 608.492188 Z M 671.117188 419.722656 L 699.507812 391.332031 L 727.894531 419.722656 L 699.507812 448.109375 Z M 532.734375 658.878906 L 655.507812 536.105469 L 677.507812 558.105469 L 554.734375 680.878906 Z M 482.347656 797.261719 L 510.738281 768.875 L 539.121094 797.261719 L 510.734375 825.648438 Z M 671.121094 608.492188 L 699.507812 580.105469 L 727.894531 608.492188 L 699.507812 636.878906 Z M 671.121094 608.492188 " />
    </g>
</svg>